<?xml version="1.0" encoding="utf-8"?>
<!-- Generator: Adobe Illustrator 24.0.1, SVG Export Plug-In . SVG Version: 6.00 Build 0)  -->
<svg version="1.1" id="Soundboard_Synth_1_" xmlns="http://www.w3.org/2000/svg" xmlns:xlink="http://www.w3.org/1999/xlink"
	 x="0px" y="0px" viewBox="0 0 576 576" style="enable-background:new 0 0 576 576;" xml:space="preserve">
<style type="text/css">
	.st0{fill:#00D1B2;}
</style>
<path id="Icon" class="st0" d="M539.9,0H36.1C16.2,0,0,16.2,0,36.1v503.8C0,559.8,16.2,576,36.1,576h503.8
	c19.9,0,36.1-16.2,36.1-36.1V36.1C576,16.2,559.8,0,539.9,0z M448,76c0-6.6,5.4-12,12-12h40c6.6,0,12,5.4,12,12v40
	c0,6.6-5.4,12-12,12h-40c-6.6,0-12-5.4-12-12V76z M448,268c0-6.6,5.4-12,12-12h40c6.6,0,12,5.4,12,12v40c0,6.6-5.4,12-12,12h-40
	c-6.6,0-12-5.4-12-12V268z M412,224c-6.6,0-12-5.4-12-12v-40c0-6.6,5.4-12,12-12h40c6.6,0,12,5.4,12,12v40c0,6.6-5.4,12-12,12H412z
	 M352,76c0-6.6,5.4-12,12-12h40c6.6,0,12,5.4,12,12v40c0,6.6-5.4,12-12,12h-40c-6.6,0-12-5.4-12-12V76z M368,172v40
	c0,6.6-5.4,12-12,12h-40c-6.6,0-12-5.4-12-12v-40c0-6.6,5.4-12,12-12h40C362.6,160,368,165.4,368,172z M256,76c0-6.6,5.4-12,12-12
	h40c6.6,0,12,5.4,12,12v40c0,6.6-5.4,12-12,12h-40c-6.6,0-12-5.4-12-12V76z M272,172v40c0,6.6-5.4,12-12,12h-40c-6.6,0-12-5.4-12-12
	v-40c0-6.6,5.4-12,12-12h40C266.6,160,272,165.4,272,172z M160,76c0-6.6,5.4-12,12-12h40c6.6,0,12,5.4,12,12v40c0,6.6-5.4,12-12,12
	h-40c-6.6,0-12-5.4-12-12V76z M176,172v40c0,6.6-5.4,12-12,12h-40c-6.6,0-12-5.4-12-12v-40c0-6.6,5.4-12,12-12h40
	C170.6,160,176,165.4,176,172z M64,76c0-6.6,5.4-12,12-12h40c6.6,0,12,5.4,12,12v40c0,6.6-5.4,12-12,12H76c-6.6,0-12-5.4-12-12V76z
	 M64,268c0-6.6,5.4-12,12-12h40c6.6,0,12,5.4,12,12v40c0,6.6-5.4,12-12,12H76c-6.6,0-12-5.4-12-12V268z M144.5,512.1H64.6V352.3
	h63.9v79.9c0,8.8,7.2,16,16,16V512.1z M272.3,512.1h-95.9v-63.9c8.8,0,16-7.2,16-16v-79.9h63.9v79.9c0,8.8,7.2,16,16,16V512.1z
	 M400.2,512.1h-95.9v-63.9c8.8,0,16-7.2,16-16v-79.9h63.9v79.9c0,8.8,7.2,16,16,16V512.1z M416,308c0,6.6-5.4,12-12,12H172
	c-6.6,0-12-5.4-12-12v-40c0-6.6,5.4-12,12-12h232c6.6,0,12,5.4,12,12V308z M512.1,512.1h-79.9v-63.9c8.8,0,16-7.2,16-16v-79.9h63.9
	V512.1z"/>
</svg>
