<?xml version="1.0" encoding="utf-8"?>
<!-- Generator: Adobe Illustrator 24.0.0, SVG Export Plug-In . SVG Version: 6.00 Build 0)  -->
<svg version="1.1" id="Layer_1" focusable="false" xmlns="http://www.w3.org/2000/svg" xmlns:xlink="http://www.w3.org/1999/xlink"
	 x="0px" y="0px" viewBox="0 0 640 640" style="enable-background:new 0 0 640 640;" xml:space="preserve">
<style type="text/css">
	.st0{opacity:0.4;fill:#00D1B2;enable-background:new    ;}
	.st1{fill:#00D1B2;}
</style>
<g>
	<path class="st0" d="M195.4,128.2c-13.1-1.9-25.3,7.2-27.2,20.4c0,0,0,0,0,0l-28.2,197.3l27.5,137.4c0.5,2.9,0.5,5.9,0,8.8
		c0-0.2,0.2-0.5,0.2-0.7l48-336C217.6,142.3,208.5,130.1,195.4,128.2L195.4,128.2z M99.7,224.3c-13.1-2-25.4,7-27.4,20.1
		c0,0,0,0,0,0L59.4,328H16c-8.8,0-16,7.2-16,16v16c0,8.8,7.2,16,16,16h64c11.8,0,21.9-8.6,23.7-20.4l16-104
		C121.7,238.6,112.8,226.3,99.7,224.3z M451.8,128.3c-13.1-2.1-25.3,6.8-27.5,19.8c0,0,0,0.1,0,0.1l-38.5,240.9l22,159.6
		c0.3,2.8,0.1,5.6-0.5,8.3c0.1-0.4,0.4-0.8,0.4-1.2l64-400C473.8,142.7,464.9,130.4,451.8,128.3
		C451.8,128.3,451.8,128.3,451.8,128.3L451.8,128.3z M548.7,224.4c-12.9-2.6-25.6,5.7-28.2,18.6c0,0.1,0,0.1,0,0.2l-20.5,102.7
		l19.8,138.7c0.4,2.9,0.2,5.9-0.5,8.8c0.1-0.3,0.2-0.5,0.3-0.7l48-240C570.1,239.7,561.7,227.1,548.7,224.4L548.7,224.4z
		 M323.3,64.2c-13.1-1.8-25.2,7.4-27.1,20.5c0,0,0,0,0,0l-42,304.4l25.5,159.1c0.4,2.8,0.3,5.6-0.3,8.4c0.1-0.5,0.4-0.8,0.4-1.3
		l64-464C345.6,78.1,336.4,66,323.3,64.2C323.3,64.2,323.3,64.2,323.3,64.2z"/>
	<path class="st1" d="M119.3,242.8c0.7,2.9,0.8,5.9,0.4,8.9l-16,104c-0.9,5.5-3.6,10.5-7.8,14.2l24.6,122.8
		c2.2,11.2,12.1,19.3,23.5,19.3c1.6,0,3.2-0.2,4.8-0.5c13-2.6,21.4-15.2,18.8-28.2l-48-240C119.5,243.1,119.4,243,119.3,242.8
		L119.3,242.8z M215.3,147.1c0.6,2.7,0.8,5.5,0.5,8.3l-22.4,156.8l39,243.6c1.9,11.6,11.9,20.2,23.7,20.2c1.3,0,2.6-0.1,3.8-0.3
		c13.1-2.1,22-14.4,19.9-27.5c0,0,0,0,0,0l-64-400C215.6,147.8,215.4,147.5,215.3,147.1L215.3,147.1z M624,328h-43.4l-12.9-83.7
		c0-0.2-0.2-0.4-0.2-0.6c0.6,2.9,0.6,6,0,8.9l-23.4,117.2c4.4,3.9,10,6.1,15.9,6.1h64c8.8,0,16-7.2,16-16v-16
		C640,335.2,632.8,328,624,328z M343.3,83.3c0.6,2.6,0.8,5.3,0.5,8L320,263.7l40.2,291.6C361.9,567.2,372,576,384,576
		c1.1,0,2.2-0.1,3.3-0.2c13.1-1.8,22.3-13.9,20.5-27c0,0,0,0,0,0l-64-464C343.7,84.2,343.4,83.8,343.3,83.3z M471.4,147.5
		c0.6,2.7,0.7,5.5,0.3,8.3l-25,156.4l25.6,179.2C474,503.2,484.1,512,496,512c1.2,0,2.3-0.1,3.4-0.2c13.1-1.9,22.2-14,20.3-27.2
		l-48-336C471.7,148.2,471.4,147.9,471.4,147.5L471.4,147.5z"/>
</g>
</svg>
