<?xml version="1.0" encoding="utf-8"?>
<!-- Generator: Adobe Illustrator 24.0.1, SVG Export Plug-In . SVG Version: 6.00 Build 0)  -->
<svg version="1.1" id="Layer_1" xmlns="http://www.w3.org/2000/svg" xmlns:xlink="http://www.w3.org/1999/xlink" x="0px" y="0px"
	 viewBox="0 0 640 640" style="enable-background:new 0 0 640 640;" xml:space="preserve">
<style type="text/css">
	.st0{fill:#FFFFFF;}
</style>
<g id="Soundboard_Synth_Icon">
	<g>
		<path class="st0" d="M139.1,521c58.9,0,103.8-114.5,143.4-215.6C334,174.2,387.2,38.6,500.9,38.6c55.7,0,102.6,38.7,139.1,86.8
			V69.9C640,31.3,608.7,0,570.1,0H69.9C31.3,0,0,31.3,0,69.9v275.8C30.3,427.4,91.6,521,139.1,521z"/>
		<path class="st0" d="M500.9,119c-58.9,0-103.8,114.5-143.4,215.6C306,465.8,252.8,601.4,139.1,601.4
			c-55.7,0-102.6-38.7-139.1-86.8v55.6C0,608.7,31.3,640,69.9,640h500.3c38.6,0,69.9-31.3,69.9-69.9V294.3
			C609.7,212.6,548.4,119,500.9,119z"/>
	</g>
</g>
</svg>
